HIERARCHY
ROOT hip
{
	OFFSET 0.000000 0.000000 0.000000 
	CHANNELS 6 Xposition Yposition Zposition Xrotation Zrotation Yrotation
	JOINT abdomen
	{
		OFFSET 0.000000 3.402643 0.000000 
		CHANNELS 3 Xrotation Zrotation Yrotation
		JOINT chest
		{
			OFFSET 0.000000 8.438565 -0.680529 
			CHANNELS 3 Xrotation Zrotation Yrotation
			JOINT neck
			{
				OFFSET 0.000000 10.207942 -0.272212 
				CHANNELS 3 Xrotation Zrotation Yrotation
				JOINT head
				{
					OFFSET 0.000000 3.130431 0.000000 
					CHANNELS 3 Xrotation Zrotation Yrotation
					End Site
					{
						OFFSET 0.000000 3.130435 0.000000 
					}
				}
			}
			JOINT lCollar
			{
				OFFSET 3.470700 6.669187 -0.816635 
				CHANNELS 3 Yrotation Zrotation Xrotation
				JOINT lShldr
				{
					OFFSET 3.198488 0.000000 0.000000 
					CHANNELS 3 Zrotation Yrotation Xrotation
					JOINT lForeArm
					{
						OFFSET 10.139888 0.000000 0.000000 
						CHANNELS 3 Yrotation Zrotation Xrotation
						JOINT lHand
						{
							OFFSET 8.370511 0.000000 0.000000 
							CHANNELS 3 Zrotation Yrotation Xrotation
							End Site
							{
								OFFSET 4.083176 0.000000 0.000000 
							}
						}
					}
				}
			}
			JOINT rCollar
			{
				OFFSET -3.470700 6.669187 -0.816635 
				CHANNELS 3 Yrotation Zrotation Xrotation
				JOINT rShldr
				{
					OFFSET -3.198488 0.000000 0.000000 
					CHANNELS 3 Zrotation Yrotation Xrotation
					JOINT rForeArm
					{
						OFFSET -10.139888 0.000000 0.000000 
						CHANNELS 3 Yrotation Zrotation Xrotation
						JOINT rHand
						{
							OFFSET -8.370511 0.000000 0.000000 
							CHANNELS 3 Zrotation Yrotation Xrotation
							End Site
							{
								OFFSET -4.083176 0.000000 0.000000 
							}
						}
					}
				}
			}
		}
	}
	JOINT lThigh
	{
		OFFSET 5.308129 -1.633274 1.361059 
		CHANNELS 3 Xrotation Zrotation Yrotation
		JOINT lShin
		{
			OFFSET -2.041588 -20.007561 0.000000 
			CHANNELS 3 Xrotation Zrotation Yrotation
			JOINT lFoot
			{
				OFFSET 0.000000 -19.190928 -1.224953 
				CHANNELS 3 Xrotation Yrotation Zrotation
				End Site
				{
					OFFSET 0.000000 -2.449906 4.627600 
				}
			}
		}
	}
	JOINT rThigh
	{
		OFFSET -5.308129 -1.633274 1.361059 
		CHANNELS 3 Xrotation Zrotation Yrotation
		JOINT rShin
		{
			OFFSET 2.041588 -20.007561 0.000000 
			CHANNELS 3 Xrotation Zrotation Yrotation
			JOINT rFoot
			{
				OFFSET 0.000000 -19.190928 -1.224953 
				CHANNELS 3 Xrotation Yrotation Zrotation
				End Site
				{
					OFFSET 0.000000 -2.449906 4.627600 
				}
			}
		}
	}
}
MOTION
Frames: 16
Frame Time: 0.033333
-4.378825 46.169868 18.656605 12.766311 -2.504950 -4.346971 0.000000 0.000000 0.000000 39.632732 3.749112 4.965524 -25.232552 -7.196373 -0.550704 -13.331152 9.462056 52.091534 -9.560424 30.000000 25.000000 28.789124 -15.749156 -35.001873 -43.853024 35.644215 15.816985 -37.640034 -14.344994 -43.857956 -8.706737 -14.015699 22.272810 -35.060165 40.437492 -14.844753 36.813789 -82.884766 62.706261 61.167110 35.367786 -69.343239 -123.780319 20.945553 -4.219254 112.562378 4.830475 -1.988592 -27.186760 -17.845158 1.204987 -121.011253 4.412688 8.492932 110.958885 0.759328 8.427993 -20.995623 -1.511056 17.091566 
-4.445617 46.153427 18.715025 12.739249 -2.724321 -4.483078 0.000000 0.000000 0.000000 39.546005 3.776452 4.968623 -25.493700 -7.109975 -0.543959 -13.526883 9.421961 52.041035 -9.291547 30.000000 25.000000 28.391047 -16.111620 -35.109066 -44.749901 35.469734 16.625572 -37.857296 -14.493530 -43.683960 -8.599364 -13.860529 22.325590 -35.011318 40.723675 -15.380647 41.120625 -82.522316 66.952538 60.755756 35.983040 -68.794991 -123.871696 20.926552 -4.233270 112.685715 5.240373 -1.859685 -27.313320 -17.771036 1.060378 -121.001884 4.363466 8.480185 111.117226 1.158724 8.503044 -21.127403 -1.364075 16.939743 
-4.436090 46.179771 18.709219 11.919038 -1.643494 -3.970042 0.000000 0.000000 0.000000 39.969753 2.808158 4.705099 -25.922899 -6.856103 -0.533432 -14.102319 8.831751 51.070423 -10.491343 30.000000 25.000000 27.626020 -16.220560 -35.199535 -45.862038 35.937241 18.349419 -38.153576 -14.711063 -43.366798 -9.562377 -12.856917 22.260162 -35.609756 40.746635 -15.901754 43.972225 -81.665024 69.597893 59.971691 37.505051 -67.504555 -122.544029 21.063543 -3.847880 112.714005 4.537987 -2.039780 -27.564470 -17.768267 0.797158 -120.353355 4.537884 8.526696 111.293785 0.201655 8.307868 -21.086098 -1.517303 16.733976 
-4.430835 46.191681 18.629305 11.447200 -1.033712 -3.715309 0.000000 0.000000 0.000000 40.106270 2.271494 4.568286 -26.184484 -6.779161 -0.524779 -14.257167 8.623112 50.730026 -10.950445 30.000000 25.000000 27.219683 -16.269754 -35.248703 -46.871284 36.032215 20.105402 -37.800167 -14.239081 -43.854790 -9.995216 -12.436510 22.236835 -36.539318 41.032162 -17.275644 45.889660 -80.388542 71.916969 59.345238 37.655193 -67.373039 -121.797791 21.140459 -3.645174 112.555557 4.117189 -2.124634 -27.486231 -17.781878 0.708712 -119.991943 4.703915 8.555264 111.191071 -0.334932 8.190201 -20.852917 -1.658660 16.706327 
-4.506437 46.192913 18.445274 10.431416 -1.037260 -3.950861 0.000000 0.000000 0.000000 40.421703 2.045117 4.495153 -26.719826 -6.854066 -0.529108 -14.111175 8.966879 50.995029 -9.939971 30.000000 25.000000 26.868126 -16.702303 -35.362736 -49.220882 35.068218 24.248110 -36.037682 -12.110835 -46.060890 -9.546515 -12.228242 22.387999 -38.881550 41.929695 -21.394426 51.208351 -77.311493 78.848450 57.990013 35.972816 -68.630623 -120.991432 21.278509 -3.402115 112.293648 4.518438 -2.051270 -27.052954 -17.607967 0.664130 -119.197937 5.185797 8.683053 110.896370 -0.155583 8.210665 -20.329998 -1.827821 16.772711 
-4.571165 46.192234 18.292301 9.689658 -1.203294 -4.307166 0.000000 0.000000 0.000000 40.673428 1.963318 4.440239 -27.120558 -6.980303 -0.534783 -13.938608 9.349376 51.240498 -8.904398 30.000000 25.000000 26.794930 -17.161020 -35.461193 -50.189629 34.086170 26.207474 -34.798183 -10.795982 -47.374729 -8.921264 -12.146090 22.543051 -40.439644 42.452469 -24.233540 54.980240 -75.348274 83.743835 57.161354 34.337414 -69.719452 -120.433868 21.424713 -3.196141 112.060806 5.065379 -1.926030 -26.725529 -17.420376 0.656921 -118.587303 5.670778 8.814220 110.569695 0.182449 8.272963 -19.879452 -1.991415 16.936621 
-4.642199 46.210037 17.959303 8.077089 -0.860520 -4.594903 0.000000 0.000000 0.000000 41.284271 1.387154 4.254893 -27.671713 -7.148665 -0.557662 -13.738345 9.752851 51.126251 -7.930891 30.000000 25.000000 26.522697 -18.095179 -35.675571 -50.470821 32.549061 26.767397 -33.581886 -10.182414 -48.170238 -8.361197 -11.517646 22.777639 -42.626961 43.186943 -28.668308 61.850060 -72.033958 92.188202 56.175545 32.274059 -70.920670 -118.534721 21.728653 -2.619789 111.341515 5.371300 -1.898613 -26.221882 -17.151075 0.558980 -117.091545 6.559347 9.030693 109.839615 0.036413 8.218662 -19.023905 -2.372108 17.159845 
-4.669918 46.231968 17.716877 6.904440 -0.368403 -4.478266 0.000000 0.000000 0.000000 41.695210 0.860499 4.096611 -27.732899 -7.184123 -0.561924 -13.756838 9.733431 50.827534 -7.768779 30.000000 25.000000 26.428234 -18.886520 -35.847763 -50.046852 31.727568 25.968966 -33.484463 -10.708307 -47.866856 -8.457611 -10.805127 22.878859 -43.606304 43.827225 -31.687555 66.516106 -69.311218 97.987144 56.126156 31.913485 -71.084961 -116.850670 21.844631 -2.109967 110.708603 5.133581 -1.953035 -25.888676 -17.162777 0.561844 -115.874786 6.931633 9.094951 109.319962 -0.461880 8.087000 -18.494267 -2.652073 17.246532 
-4.747566 46.282673 17.261702 4.658208 0.077867 -4.212392 0.000000 0.000000 0.000000 42.393147 0.266855 3.886233 -27.415224 -7.139110 -0.547272 -13.897285 9.469950 50.661808 -7.032052 30.000000 25.000000 27.006510 -20.703188 -36.219372 -49.684875 30.084908 25.881071 -33.840595 -11.954169 -46.910492 -8.581478 -9.378236 23.088367 -44.561584 45.764313 -38.520336 73.869263 -62.213146 107.685455 56.842617 31.901154 -71.098106 -113.983658 22.077030 -1.247926 109.557312 4.884816 -2.031445 -25.033796 -17.392403 0.761322 -113.500191 7.361147 9.137996 108.368523 -1.066251 7.915971 -17.568882 -3.137106 17.373781 
-4.793352 46.320087 16.963097 3.007823 0.156035 -4.151931 0.000000 0.000000 0.000000 42.939461 0.028597 3.786381 -27.117235 -7.095395 -0.550463 -13.845448 9.292100 50.725479 -6.265280 30.000000 25.000000 27.727053 -21.935970 -36.471695 -50.025387 28.937336 27.268305 -34.264339 -12.751542 -46.164314 -8.551437 -8.546816 23.235695 -44.572567 47.437885 -43.190819 77.253548 -56.754627 112.401428 57.442142 31.724232 -71.265648 -112.338951 22.293568 -0.729193 109.020027 4.850072 -2.038516 -24.325232 -17.701927 1.079389 -111.844131 7.695110 9.175297 107.833176 -1.300661 7.831837 -16.998600 -3.444775 17.539927 
-4.816388 46.380959 16.394775 -0.224615 0.400388 -4.210554 0.000000 0.000000 0.000000 44.015949 -0.519709 3.550530 -26.557867 -7.127317 -0.551424 -13.441524 9.182116 50.795654 -4.940393 27.251917 25.000000 29.200455 -24.316549 -37.018795 -50.921829 26.949043 30.751997 -35.863026 -14.911684 -43.893967 -8.569151 -7.313670 23.439240 -43.465378 51.164516 -50.600151 81.379646 -47.023689 118.583984 58.371616 30.905397 -71.892952 -109.131554 22.663151 0.308144 108.130028 4.850098 -2.040515 -23.092754 -17.977182 1.647757 -108.536865 8.482474 9.291596 106.718124 -1.935518 7.656226 -15.839070 -4.064339 18.042294 
-4.822782 46.416569 16.009432 -2.461027 0.487831 -4.444794 0.000000 0.000000 0.000000 44.762573 -0.880673 3.394229 -26.061111 -7.222679 -0.554974 -13.160527 9.281891 51.082169 -3.848937 25.106371 25.000000 30.149818 -26.186039 -37.531590 -51.459492 25.642300 33.054466 -37.366642 -16.666668 -41.835236 -8.384805 -6.635446 23.580942 -42.322933 53.910793 -54.540134 83.119049 -41.266155 122.055069 58.840981 30.514956 -72.167168 -106.760658 22.800552 1.017979 107.470016 5.124043 -1.984978 -22.413424 -17.852758 1.853442 -106.163109 9.166161 9.393497 105.915207 -2.326400 7.544105 -15.111496 -4.471194 18.445404 
-4.850556 46.490067 15.460107 -6.005942 0.301073 -5.012144 0.000000 0.000000 0.000000 46.157909 -1.299004 3.159392 -25.220755 -7.340185 -0.557426 -12.892874 9.435656 51.979988 -1.678726 21.784399 25.000000 31.355141 -29.429749 -38.593586 -52.298649 23.883173 36.296112 -39.518402 -18.471851 -39.241310 -7.559145 -5.499634 23.856647 -40.724464 57.274193 -58.034260 84.668877 -34.889614 126.858536 59.517467 30.959885 -71.847298 -102.894768 22.937538 2.209839 106.496277 6.080476 -1.805964 -21.633816 -17.424686 1.993244 -102.323502 10.332458 9.563488 104.668915 -2.606174 7.397041 -14.080107 -5.045857 19.066208 
-4.835100 46.640465 14.679234 -11.015676 0.172542 -5.639056 0.000000 0.000000 0.000000 48.336769 -1.915956 2.799281 -24.053530 -7.430309 -0.559476 -12.616204 9.297790 52.896267 1.121847 17.671862 24.249298 32.386730 -34.356022 -40.655529 -53.500252 22.028036 40.276371 -41.840458 -18.376335 -37.992973 -6.167801 -3.122003 24.313540 -39.118530 58.557301 -57.330326 85.590248 -30.768141 131.438965 60.001743 33.420887 -69.950813 -97.119690 22.916563 3.915810 105.014946 7.136065 -1.588192 -20.682100 -16.804935 2.125256 -96.724236 11.716390 9.731586 102.949219 -3.389903 7.159690 -12.759577 -5.787365 19.900686 
-4.763680 46.729668 14.118467 -13.769840 0.379399 -5.796099 0.000000 0.000000 0.000000 49.342255 -2.330483 2.601651 -23.318563 -7.504938 -0.571616 -12.348069 9.131202 52.851585 2.328393 15.688232 23.933205 32.741909 -37.311291 -42.157993 -54.188251 20.911785 42.308075 -42.973385 -17.246502 -38.362217 -5.696457 -1.333725 24.545326 -38.792812 57.584145 -55.035656 85.517708 -29.933834 132.022919 59.479454 35.112431 -68.454361 -93.656158 22.624744 4.892100 103.806816 7.253718 -1.587839 -19.912374 -16.451990 2.254163 -93.479691 12.223625 9.724910 101.705475 -4.327816 6.915811 -11.811370 -6.093910 20.409967 
-4.616899 46.858551 13.043320 -17.735491 0.632504 -6.042116 0.000000 0.000000 0.000000 50.315826 -2.784383 2.391328 -21.839561 -7.871920 -0.584169 -11.676647 9.170861 52.597427 3.920777 12.709036 23.656984 33.708378 -40.783375 -44.209599 -55.282394 18.205862 44.640232 -44.201977 -15.108968 -39.719521 -5.561439 1.240744 24.832397 -39.265697 55.632767 -52.263477 84.142876 -28.249304 129.634247 56.708069 36.670212 -66.953087 -88.294830 22.028620 6.353822 101.167397 7.292629 -1.604764 -18.262705 -15.894325 2.537561 -88.515198 12.939310 9.688947 99.113083 -5.879644 6.435192 -9.963418 -6.415403 21.357889 
